<svg width="174" height="59" viewBox="0 0 174 59" fill="none" xmlns="http://www.w3.org/2000/svg">
<path d="M129.712 22.5649H127.305V21.3393H133.519V22.5649H131.108V29.2152H129.712V22.5649ZM152.746 28.2217C152.124 28.2217 151.414 27.8881 151.024 27.355L150.025 28.2905C150.643 29.023 151.7 29.411 152.721 29.411C154.262 29.411 155.583 28.5879 155.583 26.8981C155.583 25.3534 154.295 24.9074 153.285 24.5956C152.399 24.3163 151.787 24.106 151.787 23.3844C151.787 22.6193 152.529 22.3075 153.173 22.3075C153.731 22.3075 154.317 22.5976 154.617 22.9856L155.529 21.9848C154.928 21.4191 154.031 21.1399 153.242 21.1399C151.82 21.1399 150.368 21.8506 150.368 23.4533C150.368 24.9219 151.4 25.386 152.352 25.687C153.34 25.9989 154.161 26.2346 154.161 27.0577C154.165 27.8989 153.398 28.2217 152.746 28.2217ZM145.501 29.2116H146.898V25.7958L149.847 21.3357H148.226L146.228 24.6499L144.252 21.3357H142.544L145.494 25.7958V29.2116H145.501ZM134.004 25.2519C134.004 22.7281 135.788 21.1399 138.209 21.1399C140.659 21.1399 142.447 22.7281 142.447 25.2519C142.447 27.7104 140.659 29.411 138.209 29.411C135.791 29.4148 134.004 27.7104 134.004 25.2519ZM135.524 25.2519C135.524 26.9308 136.62 28.1564 138.22 28.1564C139.83 28.1564 140.927 26.9308 140.927 25.2519C140.927 23.6274 139.852 22.3728 138.22 22.3728C136.602 22.3764 135.524 23.631 135.524 25.2519ZM173.399 48.9266C173.533 49.2602 173.736 48.8289 173.92 48.9304L173.957 49.0064L174 48.7201C173.801 48.7854 173.555 49.0064 173.399 48.9266ZM172.795 48.2415C172.842 48.372 172.701 48.372 172.918 48.2667C172.907 48.2522 172.9 48.2449 172.893 48.2342C172.871 48.2415 172.846 48.2449 172.795 48.2415ZM172.893 48.2377C172.813 48.1327 172.994 48.2159 172.893 48.2377V48.2377ZM172.556 48.2342C172.52 48.1579 172.397 48.1544 172.433 48.0926C172.306 48.1762 172.343 48.2522 172.437 48.372L172.556 48.2342ZM172.346 48.6403L172.408 48.5823C172.39 48.5495 172.371 48.5388 172.346 48.6403ZM172.469 48.535C172.469 48.6403 172.487 48.5388 172.538 48.4552L172.408 48.5823C172.433 48.6331 172.451 48.7453 172.469 48.535ZM172.629 48.4988C172.712 48.564 172.813 48.6003 172.697 48.7381C172.943 48.6548 172.875 48.419 172.629 48.4988ZM173.396 49.2893L173.508 49.3763L173.58 49.2495C173.541 49.3148 173.374 49.1842 173.396 49.2893ZM171.767 48.488C171.709 48.4445 171.608 48.4117 171.586 48.303C171.59 48.3792 171.659 48.4915 171.68 48.5858L171.767 48.488ZM171.68 48.5858L171.55 48.7308C171.684 48.7274 171.702 48.6656 171.68 48.5858ZM172.371 49.0282L172.578 48.7346L172.328 49.0392L172.371 49.0282ZM171.029 48.372L171.087 48.1907L170.975 48.4663L171.029 48.372ZM170.66 48.4518C170.703 48.303 170.544 48.2232 170.595 48.1289C170.497 48.1689 170.428 48.303 170.367 48.419C170.439 48.3502 170.53 48.3537 170.66 48.4518ZM170.258 48.6003C170.294 48.5606 170.327 48.4953 170.367 48.4228C170.327 48.4625 170.291 48.5133 170.258 48.6003ZM171.156 48.535L171.242 48.7346L171.3 48.7308C171.308 48.7491 171.315 48.7564 171.315 48.7308H171.3C171.282 48.6873 171.242 48.5751 171.156 48.535ZM171.116 48.7419C171.134 48.7419 171.17 48.7419 171.246 48.7419L171.242 48.7346C171.177 48.7381 171.134 48.7419 171.116 48.7419ZM171.926 49.3183C171.97 49.1697 171.858 49.0827 171.963 48.8904C171.894 49.0174 171.731 49.166 171.926 49.3183ZM171.583 49.0029C171.572 48.9484 171.532 48.8724 171.568 48.8106L171.42 48.9774L171.358 48.9702L171.351 49.0572L171.42 48.9812L171.583 49.0029ZM170.551 48.7564C170.497 48.8541 170.424 48.8724 170.345 48.9014C170.439 48.9304 170.533 48.9377 170.62 48.9266C170.624 48.8579 170.645 48.7346 170.551 48.7564ZM170.891 48.7671L170.877 48.7816C170.888 48.7961 170.895 48.8034 170.891 48.7671ZM169.545 49.0102H169.531L169.549 49.0464L169.545 49.0102ZM170.776 48.8651C170.728 48.8942 170.678 48.9121 170.62 48.9232C170.616 48.9557 170.62 48.9739 170.638 48.9594C170.714 48.9919 170.747 48.9339 170.776 48.8651ZM170.045 48.7274C170.084 48.7671 170.132 48.7961 170.178 48.8251C170.132 48.7636 170.048 48.6728 170.045 48.7274ZM170.848 48.7274L170.855 48.7163C170.83 48.6766 170.834 48.6946 170.848 48.7274ZM170.877 48.7816C170.866 48.7671 170.855 48.7491 170.848 48.7274C170.815 48.7636 170.797 48.8179 170.776 48.8651C170.815 48.8434 170.848 48.8144 170.877 48.7816ZM169.429 49.34C169.498 49.4381 169.806 49.5358 169.701 49.7282C169.513 49.8549 169.524 49.6846 169.411 49.5976C169.531 49.8259 169.205 49.9782 169.303 50.3228L169.462 50.174C169.473 50.2286 169.422 50.3228 169.476 50.3663C169.458 50.174 169.61 49.971 169.791 50.156C169.918 49.9927 169.733 49.3763 169.549 49.0427C169.552 49.1297 169.563 49.206 169.429 49.34ZM169.647 48.7636C169.552 48.8724 169.541 48.9449 169.545 49.0102L169.86 48.9919L169.842 49.0247L169.9 48.9919C169.824 48.9702 169.762 48.9014 169.647 48.7636ZM170.189 48.9774C170.244 48.9339 170.294 48.9159 170.345 48.9014C170.287 48.8831 170.229 48.8579 170.175 48.8289L170.182 48.8396V48.8434C170.197 48.8686 170.204 48.8831 170.189 48.8686L170.182 48.8724C170.186 48.9014 170.182 48.9266 170.178 48.9522C170.084 48.9232 170.157 48.8976 170.182 48.8724V48.8396L170.178 48.8361L169.896 48.9919C169.965 49.0102 170.041 48.9957 170.178 48.9522C170.16 49.166 170.019 49.2785 170.146 49.4888C170.33 49.4488 170.251 49.2965 170.349 49.1915C170.063 49.2858 170.424 49.0644 170.189 48.9774ZM171.829 49.7897C171.818 49.7717 171.814 49.7572 171.814 49.7427C171.796 49.7717 171.792 49.7897 171.829 49.7897ZM171.792 49.4888L171.775 49.5213C171.644 49.4671 171.456 49.2278 171.474 49.195C171.536 49.3763 171.583 49.5068 171.688 49.6809C171.706 49.6484 171.713 49.5614 171.785 49.5759C171.854 49.6301 171.8 49.6774 171.811 49.7427C171.847 49.6809 171.941 49.5721 171.792 49.4888ZM170.703 49.5068L170.855 49.6701L170.834 49.5614C170.982 49.5831 170.931 49.4561 170.938 49.369L170.703 49.5068ZM169.484 48.6873L169.386 49.0174L169.484 48.9121V48.6873ZM169.078 48.9159L169.162 48.9812L169.147 48.7888L169.078 48.9159ZM165.854 49.5938C165.749 49.5286 165.669 49.5068 165.601 49.5106C165.734 49.6083 165.857 49.7752 165.854 49.5938ZM165.604 49.5106C165.507 49.4343 165.401 49.398 165.336 49.5576C165.355 49.5759 165.372 49.5831 165.394 49.5976C165.456 49.5541 165.517 49.5106 165.604 49.5106ZM168.293 49.9782C168.289 49.9274 168.297 49.8912 168.304 49.8732C168.297 49.8984 168.289 49.9312 168.293 49.9782ZM167.964 49.177C167.935 49.1552 167.902 49.1407 167.866 49.1297C167.881 49.1407 167.913 49.1587 167.964 49.177ZM167.866 49.1262C167.852 49.1152 167.841 49.1045 167.844 49.0972C167.852 49.0717 167.909 49.0717 167.844 49.0972C167.823 49.1045 167.797 49.1117 167.75 49.1225C167.79 49.1117 167.826 49.119 167.866 49.1262ZM168.308 49.8694C168.315 49.8549 168.326 49.8549 168.333 49.8442C168.326 49.8477 168.315 49.8549 168.308 49.8694ZM169.035 49.177C168.829 49.1152 168.687 49.4598 168.554 49.6301L168.735 49.8114C168.698 50.1778 168.434 49.8079 168.333 49.8442C168.394 49.7934 168.503 49.8477 168.521 49.924L168.434 49.6339C168.199 49.5503 168.065 49.8079 167.935 49.9782C168.094 50.0545 167.79 50.185 167.927 50.3771L168.036 50.3228C168.105 50.4171 168.007 50.5259 167.96 50.6237C167.569 50.4641 166.94 50.758 166.773 50.5439C166.86 50.6092 166.983 50.5221 167.034 50.4244L166.846 50.3263C166.983 50.2938 167.131 50.5404 167.319 50.4099C167.254 50.2286 167.359 49.9492 167.164 49.7137C166.726 49.4816 166.925 50.2538 166.447 50.2538C166.415 50.3191 166.494 49.9312 166.263 50.0763C165.98 50.3191 165.828 50.787 165.901 51.1931C166.009 51.0515 166.23 50.7652 166.321 51.0515C166.212 51.1931 165.999 51.3091 166.02 51.5012C165.825 51.1858 166.248 51.3561 166.024 51.1023C165.934 51.1278 165.915 51.2473 165.883 51.3126C165.919 51.1603 165.76 51.0916 165.716 51.0153C165.42 51.066 165.22 50.95 164.899 50.979C164.916 51.008 164.92 51.0153 164.891 50.979H164.899C164.873 50.932 164.819 50.8305 164.812 50.7469C164.674 50.8668 164.547 51.4179 164.645 51.6172C164.468 51.6645 164.424 51.5049 164.291 51.6282C164.595 51.8855 164.233 51.5847 164.269 51.9183C164.12 51.9871 164.182 51.7695 164.095 51.708C164.077 51.7477 164.033 51.8676 164.048 51.9546C163.903 51.726 164.11 51.2729 163.939 51.008C163.824 50.8377 163.491 50.6454 163.52 50.6274C163.219 50.8232 163.929 51.7623 163.806 52.3352C163.766 52.5275 163.617 52.1611 163.545 52.1576C163.285 51.8928 163.292 52.4622 163.104 52.3752L163.194 52.1756C163.15 52.1031 162.926 52.2554 162.912 52.3752C162.883 52.2699 162.923 51.795 162.821 51.6862C162.51 51.6935 162.354 52.3424 162.441 52.658C162.441 52.658 162.658 52.1141 162.716 52.2447C162.85 52.542 162.814 52.6 162.648 52.8829C162.593 52.9771 162.231 52.9844 162.21 52.8756C162.199 52.8211 162.405 52.7451 162.307 52.6108C162.13 52.6653 162.206 52.5855 162.058 52.484C162.188 52.1031 162.38 51.1496 162.43 50.7072C162.43 50.7072 162.322 50.9393 162.249 50.932C162.206 50.9282 162.163 50.787 162.163 50.787C161.92 51.0588 162.105 52.3099 161.884 52.4512C161.649 52.6 161.634 51.8348 161.649 51.7153C161.63 51.7187 161.616 51.7298 161.602 51.737C161.613 51.8168 161.616 51.8966 161.609 51.9763C161.569 52.3424 161.377 52.629 161.07 52.7886C161.044 52.8031 161.015 52.8138 160.986 52.8211C159.311 53.3543 157.65 53.7966 156.047 54.1375C154.639 54.4421 153.155 54.7066 151.639 54.9315C150.643 55.0765 149.721 55.149 148.885 55.149C148.414 55.149 147.973 55.1273 147.557 55.0803C147.538 55.0765 147.524 55.0765 147.506 55.073C145.287 54.6124 145.092 53.307 145.172 52.571C145.248 51.8821 145.566 51.1313 146.12 50.3373C146.637 49.5904 147.234 48.8759 147.89 48.2159C148.476 47.625 149.051 47.0991 149.598 46.6495C149.431 46.6532 149.258 46.6532 149.073 46.6532C147.868 46.664 146.612 46.646 145.335 46.5987C145.32 46.5987 145.309 46.5987 145.295 46.5952L143.753 46.4246C143.71 46.4212 143.67 46.4139 143.63 46.4067C139.837 49.119 133.732 51.6172 130.797 52.5745C130.794 52.5745 130.783 52.5783 130.768 52.5783C130.562 52.6543 130.348 52.7195 130.117 52.7813C129.313 52.9916 128.59 53.1004 127.971 53.1004C127.967 53.1004 127.967 53.1004 127.964 53.1004C127.902 53.1004 127.844 53.0932 127.783 53.0894C127.692 53.0932 127.602 53.1004 127.515 53.1004C127.511 53.1004 127.511 53.1004 127.508 53.1004C126.816 53.1004 126.252 52.9409 125.825 52.629C125.438 52.3462 125.123 52.0161 124.888 51.6462C124.652 51.2801 124.497 50.9065 124.413 50.5294C124.338 50.1778 124.301 49.8984 124.301 49.6809C124.301 49.2167 124.247 48.5533 124.457 47.6503C124.051 47.6865 123.635 47.7193 123.197 47.7373C121.435 47.8063 119.151 47.1101 117.918 46.6315L115.728 48.3392C115.713 48.3537 115.703 48.372 115.685 48.3865L115.453 48.564C115.294 48.6873 115.131 48.8144 114.961 48.9412C113.937 49.6881 112.891 50.3698 111.848 50.9683C110.745 51.5992 109.681 51.9763 108.686 52.0924C108.602 52.1031 108.519 52.1069 108.436 52.1069C107.85 52.1069 107.31 51.8603 106.833 51.3672C106.322 50.845 106.022 50.2503 105.95 49.6084C105.874 48.9522 106.026 48.1979 106.402 47.3602C106.753 46.5842 107.195 45.812 107.719 45.065C107.817 44.9272 107.954 44.7386 108.114 44.5211C104.48 47.2949 100.561 49.6519 98.0603 50.5549C98.0568 50.5549 97.9952 50.5656 97.8939 50.5801C97.5681 50.6854 97.2462 50.7687 96.9023 50.8595C96.783 50.892 96.6599 50.921 96.5331 50.9538C95.6901 51.1748 94.9336 51.2874 94.2822 51.2874C93.5439 51.2874 92.9469 51.1168 92.4982 50.787C92.0928 50.4859 91.7599 50.1378 91.5138 49.7534C91.2677 49.369 91.1012 48.9739 91.0144 48.5751C90.9348 48.2052 90.8986 47.9113 90.8986 47.6793C90.8986 47.2079 90.9637 46.762 91.0902 46.3449C90.8876 46.4574 90.6887 46.5624 90.4933 46.664C89.7767 47.0338 89.2773 47.2659 88.9661 47.3674C88.6766 47.4945 88.3109 47.6358 87.8839 47.788C87.5075 47.9186 87.1059 48.0781 86.6934 48.2632C86.621 48.2957 86.5449 48.3102 86.4653 48.3102C86.2915 48.3102 85.9658 48.2522 85.7342 47.8533C85.6112 47.6503 85.5498 47.4437 85.5498 47.2441C85.5498 46.7002 85.8321 46.4754 86.002 46.3921C86.0203 46.3811 86.0382 46.3739 86.0599 46.3666C86.3822 46.2471 86.7151 46.1166 87.1421 45.9498C87.4751 45.8155 87.7825 45.6814 88.0503 45.5471C89.1108 45.0395 90.0408 44.5318 90.8152 44.0314C91.7237 43.4875 92.3931 43.0054 92.8021 42.592C93.1892 42.2039 93.4426 41.8595 93.5549 41.5622C93.7141 41.1416 93.8696 40.8152 94.0361 40.5649C94.2822 40.1988 94.6478 39.9957 95.0711 39.9957C95.5091 39.9957 95.9072 40.108 96.2546 40.3328C96.5514 40.5251 96.9023 40.9057 96.9023 41.6237C96.9023 41.874 96.8082 42.1458 96.6093 42.4794L96.0988 43.2409C95.8855 43.56 95.6718 43.9371 95.4692 44.3688C95.2665 44.7967 95.0855 45.2608 94.9336 45.7429C94.7888 46.1998 94.7129 46.6387 94.7129 47.0521C94.7129 47.4182 94.8395 47.7228 95.1073 47.9911C95.3716 48.256 95.8276 48.39 96.468 48.3937C96.7068 48.3937 97.5175 48.227 98.2702 48.0529C100.145 47.4472 102.53 46.1926 105.403 44.289C106.076 43.8429 106.84 43.3497 107.578 42.8748C109.062 41.9175 110.6 40.9275 111.479 40.264C111.667 40.1225 111.82 40.0717 111.939 40.108C112.301 40.0282 112.797 40.0354 113.159 40.1553C114.107 40.4671 114.53 41.5839 114.418 42.2474C114.367 42.5447 114.027 43.0634 112.283 45.5291C111.682 46.3776 111.114 47.1789 110.803 47.6575L110.709 47.7991C110.607 47.9514 110.318 48.3865 110.26 48.6041C110.184 48.8614 110.669 48.8071 110.792 48.7926C111.577 48.7018 112.525 48.2449 113.611 47.4437L117.266 44.231C117.284 44.2127 117.306 44.1982 117.328 44.1837C117.603 44.0062 118.236 43.8356 118.88 44.307L119.162 44.5173C119.879 45.0577 120.396 45.4456 122.13 45.6379C122.854 45.7177 123.928 45.6452 125.202 45.4311C125.553 44.5066 125.977 43.5203 126.371 42.784C126.375 42.7768 126.375 42.7695 126.379 42.7623C127.214 40.953 128.47 39.6003 130.113 38.7338C130.794 38.3785 131.633 38.1861 132.357 38.2297C133.569 38.2987 134.532 38.8751 134.995 39.8106C135.466 40.7607 135.343 41.903 134.648 42.9363C133.24 45.0287 131.322 45.8227 129.476 46.5517C129.386 46.588 129.256 46.6315 129.096 46.6822C129.06 46.693 129.024 46.7075 128.988 46.7185C128.832 47.0666 128.691 47.4327 128.568 47.8171C128.427 48.2594 128.355 48.6838 128.355 49.0827C128.355 49.4416 128.481 49.7461 128.745 50.0072C128.963 50.2286 129.324 50.3518 129.798 50.3843C130.081 50.3481 130.562 50.2503 131.058 50.1415C133.729 49.398 138.155 47.5017 140.756 45.9242C140.952 45.8082 141.137 45.6849 141.325 45.5654C141.289 45.5326 141.249 45.5036 141.212 45.4711C141.195 45.4566 141.18 45.4383 141.166 45.4204C140.937 45.1375 140.811 44.8982 140.764 44.6624C140.753 44.6081 140.749 44.5536 140.756 44.4993C140.818 43.9482 141.162 43.368 141.813 42.7188C142.399 42.1386 143.084 41.6092 143.851 41.1488C144.6 40.6992 145.367 40.3148 146.138 40.0064C146.97 39.6728 147.625 39.5388 148.136 39.5968C148.794 39.6656 149.026 40.09 149.105 40.3366C149.2 40.6301 149.229 40.9347 149.196 41.2393C149.152 41.6454 147.965 42.9691 147.296 43.6833C147.368 43.6943 147.448 43.7088 147.538 43.7196L148.588 43.8356C149.044 43.8864 149.572 43.9081 150.148 43.9046C150.734 43.9046 151.356 43.8791 152.001 43.8321C152.612 43.7848 153.202 43.7016 153.763 43.5818C153.821 43.5673 153.875 43.5673 153.933 43.5745C154.233 43.6073 154.494 43.7848 154.704 44.0932C154.899 44.3833 154.979 44.6841 154.946 44.996C154.86 45.8082 154.422 46.3304 153.712 46.4827C153.387 46.6712 152.963 46.9433 152.457 47.2914C151.914 47.6685 151.385 48.1037 150.889 48.5823C150.379 49.0755 149.92 49.5793 149.529 50.0763C149.181 50.5187 148.986 50.9248 148.946 51.2909C148.917 51.5412 148.993 51.7332 149.192 51.9146C149.326 52.0378 149.699 52.2554 150.705 52.368C151.87 52.4947 153.046 52.484 154.197 52.3389C155.37 52.1901 156.445 52.0016 157.393 51.784C158.54 51.5374 159.626 51.2328 160.628 50.8847C160.701 50.8595 160.78 50.8485 160.856 50.8595C160.867 50.8595 160.882 50.863 160.896 50.8668C160.918 50.8305 160.943 50.8267 160.976 50.8847C160.986 50.8885 160.997 50.892 161.008 50.8958C161.026 50.845 161.048 50.7977 161.077 50.758C160.994 50.5946 161.384 50.5477 161.384 50.5549C161.374 50.6309 161.457 50.5404 161.565 50.5186C162.029 50.4316 162.126 49.895 162.561 50.3083C162.503 50.2683 162.427 50.261 162.423 50.3481C162.694 50.2683 163.035 50.5366 163.176 50.3263L163.121 50.1125C163.306 49.9747 163.447 49.8694 163.614 49.8477C163.614 49.8477 163.531 49.6446 163.574 49.6011C163.758 49.4198 164.269 49.1625 164.508 49.6374C164.529 49.4308 164.826 49.4996 164.971 49.5431C165.018 49.5576 165.04 49.7244 165.04 49.7244C165.228 49.7534 165.326 49.6664 165.42 49.5938C165.847 49.9202 166.107 49.4706 166.426 49.4453L166.436 49.4996L166.733 49.3148C166.679 49.4996 166.777 49.1877 166.882 49.2205C166.969 49.1117 167.139 49.137 167.28 49.2385L167.482 49.2167C167.276 49.3801 167.54 49.4851 167.587 49.6991L167.689 49.5068C167.757 49.6011 167.634 49.6881 167.736 49.7209C167.804 49.5904 168.061 49.5576 168.105 49.322C168.083 49.2675 168.047 49.224 168 49.1877C167.993 49.2022 167.993 49.1987 167.996 49.1842L167.985 49.1732L167.996 49.177C168.004 49.1552 168.014 49.1152 168.018 49.0862C168 49.0827 167.982 49.0789 167.956 49.0755C168.011 49.0282 168.022 49.0499 168.022 49.0862C168.192 49.1079 168.116 49.0282 168.098 48.9339C168.333 49.2423 168.402 48.9992 168.601 49.3728C168.344 48.9557 169.017 49.3003 168.836 48.8942C168.999 49.2205 168.905 48.8976 169.035 49.177ZM130.229 44.0569C131.25 43.5928 132.02 42.8748 132.712 41.874C132.849 41.6782 133.037 41.1523 132.534 41.1305C132.469 41.1271 132.339 41.1813 132.191 41.3736C131.441 42.3416 130.888 43.1031 130.229 44.0569ZM167.121 49.4053C167.034 49.3728 166.99 49.3438 167.117 49.4163C167.117 49.4125 167.121 49.4053 167.121 49.4053ZM168.546 49.0174C168.535 48.9629 168.496 48.8904 168.539 48.8797L168.398 48.9629C168.47 48.9412 168.506 48.9884 168.546 49.0174ZM170.045 50.1305C170.063 50.098 170.092 50.1198 170.106 50.087L170.084 49.9782C169.994 50.0037 169.94 50.098 170.045 50.1305ZM168.796 49.6301C168.839 49.8259 168.919 49.7427 169.02 49.6881C169.013 49.6919 169.01 49.6919 169.002 49.6919C168.988 49.4163 168.89 49.5251 168.796 49.6301ZM169.042 49.6809C169.071 49.6664 169.104 49.6556 169.136 49.6629C169.133 49.5468 169.093 49.6446 169.042 49.6809ZM167.642 49.293C167.7 49.3365 167.634 49.0392 167.674 49.1117C167.692 48.8541 167.392 49.4671 167.642 49.293ZM168.872 50.232L168.973 50.2648L168.901 50.029L168.872 50.232ZM168.34 50.1668C168.235 50.174 168.116 50.145 168.134 50.2141L168.311 50.2538C168.297 50.2175 168.315 50.1885 168.34 50.1668C168.394 50.1633 168.445 50.1488 168.467 50.1053C168.438 50.1125 168.376 50.1305 168.34 50.1668ZM168.586 50.3301L168.764 50.3736L168.706 50.3301H168.586ZM166.292 50.6382C166.324 50.5729 166.386 50.5294 166.346 50.4534L166.18 50.5549C166.172 50.6419 166.23 50.6817 166.292 50.6382ZM166.932 51.1531L166.998 51.0225C166.94 50.979 166.929 50.9283 166.889 50.8522L166.932 51.1531ZM166.487 51.1786C166.484 51.2656 166.27 51.4649 166.491 51.4034C166.494 51.3199 166.665 51.2183 166.487 51.1786ZM161.663 52.56C161.5 52.4875 161.482 52.658 161.613 52.9626C161.848 53.0352 161.594 52.6508 161.815 52.7558C161.84 52.629 161.768 52.6073 161.663 52.56ZM91.9047 34.4513C89.136 36.9208 86.4435 39.198 83.903 41.2176C81.4749 43.1466 79.4193 44.7276 77.7943 45.9135C77.1212 48.8579 76.8282 51.5557 76.9223 53.9307L76.9585 54.8482C76.9764 55.2543 76.915 55.6314 76.7775 55.9723C76.6 56.4037 76.1912 56.7048 75.5578 56.8678C75.3696 56.9331 75.1345 56.9731 74.8595 56.9838C74.8195 56.9876 74.7761 56.9876 74.7364 56.9876C73.9258 56.9876 73.495 56.6395 73.2744 56.3456C72.9811 55.9578 72.8256 55.5116 72.8039 55.0185C72.775 51.8095 73.3647 48.2052 74.5627 44.307C75.453 41.4134 76.5749 38.451 77.9139 35.4738C77.8415 35.5429 77.7691 35.6154 77.6967 35.6841C75.0042 38.2552 72.3876 40.6194 69.9233 42.7153C67.56 44.7276 65.5588 46.3739 63.9772 47.614C63.4019 50.5839 63.1993 53.289 63.373 55.6532L63.4416 56.567C63.4706 56.9731 63.4199 57.3537 63.2968 57.6983C63.1341 58.1369 62.7323 58.4526 62.1064 58.6301C61.9216 58.7026 61.69 58.7499 61.4115 58.7716C61.3354 58.7751 61.2668 58.7789 61.2016 58.7789C60.4451 58.7789 60.0253 58.4525 59.8082 58.1804C59.5042 57.8033 59.3305 57.3609 59.2943 56.8716C59.2002 54.7177 59.3884 52.368 59.8409 49.8694L59.6382 49.9782C59.2002 50.2175 58.6322 50.5366 57.9553 50.9282C57.2642 51.3309 56.497 51.7332 55.6791 52.1286C54.872 52.5165 54.0686 52.8718 53.2834 53.1875C52.4762 53.5138 51.7345 53.7169 51.0793 53.7966C50.3555 53.8837 49.7441 53.7856 49.2554 53.51C48.8139 53.26 48.4447 52.9516 48.1552 52.5963C47.8622 52.2409 47.6486 51.8676 47.5221 51.4867C47.399 51.1278 47.3266 50.8412 47.3012 50.6164C47.247 50.1378 47.2577 49.6664 47.3339 49.2133C47.2398 49.3003 47.1385 49.3873 47.0371 49.4816C46.2337 50.1995 45.3145 50.9393 44.3047 51.679C43.2841 52.426 42.2347 53.1112 41.1889 53.7096C40.0815 54.3406 39.0138 54.7211 38.0115 54.8372C37.9281 54.8482 37.8413 54.8517 37.7582 54.8517C37.1609 54.8517 36.6146 54.5979 36.1297 54.1012C35.612 53.5718 35.3118 52.9734 35.2356 52.3207C35.1598 51.6607 35.3118 50.8992 35.6882 50.0545C36.039 49.2747 36.4843 48.4988 37.0089 47.7518C37.5156 47.0266 38.026 46.3376 38.5289 45.7032C38.9814 45.1303 39.336 44.7241 39.6111 44.4631C39.629 44.4303 39.6473 44.405 39.669 44.3795C39.7738 44.2455 39.9295 44.1619 40.1032 44.144L40.3745 44.1112C40.7581 44.0642 41.1055 44.1547 41.3771 44.376C41.4964 44.4703 41.6449 44.6516 41.6811 44.9562C41.7208 45.3005 41.5653 45.6922 41.1817 46.2216C40.8956 46.6097 40.5809 47.0521 40.2442 47.5307C39.9185 47.9949 39.6255 48.4953 39.3757 49.0137C39.1551 49.4706 39.0755 49.9167 39.1296 50.3736C39.1696 50.7145 39.2998 50.9863 39.5277 51.2149C39.7883 51.4722 39.9802 51.4794 40.1032 51.4649C40.8849 51.3744 41.8366 50.9175 42.926 50.1088C44.0803 49.253 45.2094 48.285 46.2844 47.2334C47.5472 46.004 48.8573 44.6406 50.1784 43.1757C50.2687 43.0741 50.3955 43.0089 50.5292 42.9943C50.9456 42.9436 51.3147 42.9836 51.6332 43.1142C51.9262 43.2374 52.2953 43.5383 52.3821 44.2707C52.4111 44.5173 52.3497 44.8074 52.1905 45.1555C52.1832 45.17 52.176 45.1883 52.165 45.2028C52.1216 45.2788 51.9806 45.5799 51.6549 46.646C51.4233 47.4037 51.3471 48.1472 51.4305 48.8579C51.445 48.9847 51.4774 49.166 51.5281 49.398C51.568 49.5938 51.6511 49.8042 51.7707 50.0182C51.8827 50.2141 52.0312 50.3809 52.2229 50.5221C52.357 50.6202 52.5958 50.6564 52.9105 50.6164C53.3775 50.5622 53.8949 50.4206 54.4522 50.1996C55.0529 49.9602 55.6574 49.6991 56.2399 49.4198C56.819 49.148 57.3763 48.8686 57.8902 48.593C58.3823 48.332 58.7949 48.1182 59.0844 47.9804L60.3982 47.2659C60.4923 46.8815 60.5864 46.4972 60.6912 46.1055C61.7517 42.1931 63.2282 38.1499 65.0774 34.0924C66.9268 30.0312 69.1306 26.0134 71.6276 22.1479C74.1212 18.2825 76.7593 14.7688 79.4628 11.7084C82.177 8.6371 84.9491 6.0952 87.7029 4.15887C90.5077 2.18627 93.1858 1.09119 95.6646 0.909886C97.0218 0.808355 98.0676 1.04405 98.7806 1.6061C99.5189 2.1899 99.9422 3.38288 100.08 5.25757C100.083 5.29746 100.08 5.34097 100.083 5.38086C101.046 4.61938 102.009 3.91592 102.964 3.2886C105.834 1.41029 108.548 0.409484 111.031 0.307953C112.395 0.253561 113.43 0.525519 114.125 1.11295C114.838 1.71851 115.221 2.91149 115.297 4.76805V4.80069C115.366 6.54847 114.686 8.6516 113.267 11.0485C111.892 13.38 110.064 15.9002 107.831 18.5436C105.617 21.1689 103.076 23.8848 100.29 26.6153C97.4995 29.3422 94.6802 31.9783 91.9047 34.4513ZM81.0551 29.1717C82.6329 26.2998 84.3808 23.4715 86.2881 20.7265C88.9117 16.9481 91.6658 13.5251 94.4703 10.5553C94.7491 10.2616 95.0276 9.97513 95.3064 9.69229C95.9434 8.16933 96.2291 6.87119 96.1533 5.82687C96.1171 5.33372 95.9469 4.90947 95.6356 4.53235C95.4113 4.2604 95.0169 4.12261 94.4703 4.12261C94.3835 4.12261 94.2894 4.12623 94.1953 4.13348C92.4258 4.26402 90.5402 4.98562 88.5897 6.27651C86.5955 7.59641 84.5727 9.35144 82.5823 11.4872C80.5774 13.6375 78.5942 16.1431 76.6869 18.9352C74.7689 21.7454 72.9811 24.7261 71.3708 27.7974C69.753 30.8832 68.3237 34.0524 67.115 37.2143C66.1234 39.8072 65.3017 42.3489 64.6686 44.7677C65.9859 43.7161 67.513 42.4179 69.2102 40.8985C71.4829 38.8644 73.8858 36.5762 76.3505 34.0959C77.9211 32.5114 79.4952 30.8614 81.0551 29.1717ZM90.6198 32.8268C93.1496 30.4446 95.7118 27.8917 98.2268 25.2374C100.72 22.6048 102.986 19.9868 104.965 17.4521C106.93 14.9356 108.526 12.5678 109.71 10.4139C110.861 8.32525 111.414 6.58473 111.36 5.23944C111.342 4.74629 111.186 4.31479 110.886 3.9268C110.654 3.62946 110.231 3.47716 109.623 3.47716C109.572 3.47716 109.518 3.47716 109.464 3.48079C107.694 3.54968 105.787 4.20601 103.789 5.43525C102.396 6.29464 100.981 7.35709 99.5696 8.60084C99.2656 9.52912 98.8313 10.519 98.2595 11.5706C96.9674 13.9421 95.2231 16.5239 93.0772 19.2434C90.942 21.9485 88.4991 24.7479 85.8104 27.5617C85.3544 28.0367 84.8984 28.5081 84.4387 28.9795C83.2878 31.1733 82.2311 33.3997 81.2939 35.6299C80.2155 38.1861 79.307 40.6992 78.5942 43.0959C79.9512 42.0878 81.5218 40.8404 83.2626 39.3828C85.604 37.4212 88.0793 35.2127 90.6198 32.8268ZM99.3597 31.2313C98.9326 31.4961 98.5563 31.8332 98.2378 32.2286C97.93 32.613 97.6695 33.0298 97.4668 33.4615C97.2462 33.9291 97.1339 34.3753 97.1304 34.7814C97.1304 35.3143 97.2969 35.7314 97.6226 36.025C97.9338 36.3006 98.3715 36.4421 98.9254 36.4421H98.9289C99.4066 36.4421 99.8735 36.2933 100.308 36.0032C100.702 35.7421 101.064 35.4086 101.382 35.0097C101.686 34.6253 101.947 34.2119 102.153 33.7768C102.374 33.3054 102.486 32.863 102.486 32.4569C102.486 31.4019 101.831 30.7962 100.691 30.7962C100.29 30.8034 99.8191 30.945 99.3597 31.2313ZM40.8126 38.8934L40.8198 38.8861C41.1996 38.3422 41.5942 37.78 41.9417 37.2036C42.2601 36.6742 42.8788 35.5501 43.1287 35.0932C43.4361 34.484 44.0696 32.9718 43.3203 32.0943C42.8064 31.4924 41.8838 31.4164 40.4941 31.8587C40.1646 31.9638 39.7052 32.1233 39.1406 32.3191C36.8679 33.1096 33.0643 34.4333 28.9569 35.2563C28.6022 35.3288 28.244 35.4013 27.9002 35.4738L27.8423 35.4848C26.6951 35.7242 25.613 35.9525 24.5201 36.0723C21.5345 36.3986 19.2003 36.4166 17.807 36.4239C17.4197 36.4276 17.0868 36.4276 16.848 36.4384C15.8166 36.4746 14.9806 36.4639 14.369 36.4059C14.2387 36.3914 14.1157 36.3803 14.0216 36.3769C13.8877 36.3731 13.7574 36.3803 13.6416 36.4094C13.2725 36.4856 13.077 36.6849 12.9793 36.8372C12.8273 37.0731 12.7875 37.3594 12.8563 37.6895C13.0227 38.4835 13.4534 39.1507 14.141 39.6801C14.8177 40.1988 15.8745 40.4526 17.3763 40.4526C17.4017 40.4526 17.427 40.4526 17.4523 40.4526C17.9734 40.4236 19.2039 40.3148 21.2124 40.119C23.1992 39.9232 25.5877 39.5316 28.3127 38.9549C30.7664 38.4365 32.9233 37.9361 34.729 37.4754C35.2646 37.3376 35.7967 37.2036 36.3141 37.0731L36.3975 37.0513C37.53 36.7685 38.7026 36.4746 39.8244 36.1483C39.8534 36.141 39.8823 36.1303 39.9113 36.123C38.8763 37.8163 37.6279 39.5713 35.9884 41.6492C33.9401 44.2455 28.9569 49.3873 23.2643 52.2157C21.491 53.0932 19.5513 53.7203 17.3293 54.1302C15.8347 54.4058 14.4088 54.4746 13.0843 54.3333C11.7778 54.1955 10.5619 53.8219 9.47619 53.2199C8.39775 52.6218 7.47492 51.7913 6.73666 50.7542C5.99478 49.7171 5.48089 48.4228 5.20223 46.9071C4.74263 44.4123 4.85481 41.816 5.53155 39.1869C6.21553 36.5254 7.29759 33.9146 8.74516 31.4271C10.2 28.9251 11.9769 26.5065 14.0216 24.2402C15.2484 22.884 16.5512 21.5714 17.8974 20.3385C18.9469 19.4537 19.8951 18.7031 20.7962 18.0432C23.4127 16.1214 26.2101 14.4243 29.1162 12.992C32.0186 11.5634 34.9244 10.4647 37.7617 9.7213C38.9631 9.40583 40.2335 9.1375 41.5363 8.91631C42.8174 8.70237 44.1637 8.55007 45.5351 8.46667C45.7884 8.47392 46.0528 8.48843 46.3133 8.51744C46.2916 8.5537 46.2589 8.60084 46.2048 8.66248C45.9187 8.91631 45.6619 9.19914 45.4448 9.51099C45.1553 9.92436 45.0539 10.3196 45.148 10.6786C45.2494 11.0557 45.6113 11.4364 46.3023 11.2551C46.3458 11.2443 46.3892 11.2261 46.4291 11.2044C47.1854 10.7874 47.855 10.3051 48.4158 9.76119C48.9117 9.27529 49.3205 8.73863 49.639 8.1657C50.0047 7.50938 50.0877 6.79504 49.8888 6.03719C49.6789 5.23582 49.1323 4.6774 48.3037 4.42357C47.5872 4.20238 46.7656 4.12261 45.8608 4.18425C44.985 4.24227 44.0624 4.37643 43.1104 4.58675C42.1695 4.78981 41.3047 4.9965 40.5338 5.19956C37.4721 6.00092 34.2551 7.25193 30.9691 8.91993C27.6867 10.5843 24.455 12.5605 21.3571 14.7942C20.3764 15.5013 19.3812 16.2664 18.2195 17.2128C18.1363 17.2309 18.0531 17.2745 17.9879 17.3289C17.3944 17.8329 16.7864 18.3659 16.1314 18.9606L15.9215 19.131C15.8889 19.16 15.86 19.1927 15.8383 19.2253C14.3979 20.5452 13.0155 21.9122 11.7308 23.2829C9.1722 26.0097 6.93932 28.8744 5.09366 31.7935C3.23715 34.7234 1.82939 37.7075 0.9138 40.6629C-0.0126456 43.6543 -0.23702 46.5227 0.251536 49.1842C0.884848 52.6253 2.45909 55.2688 4.93443 57.0491C6.73304 58.3438 8.87907 58.9999 11.311 58.9999C12.2193 58.9999 13.182 58.9057 14.1699 58.7244C16.0084 58.3873 17.9445 57.7671 19.924 56.8861C21.8783 56.0158 23.8868 55.004 25.8989 53.8726C29.4998 51.5122 32.6482 49.0499 34.3237 47.2842C36.5891 44.8982 38.4999 42.2221 40.5882 39.2197L40.8126 38.8934Z" fill="#00675E"/>
</svg>
